<svg width="36" height="33" viewBox="0 0 36 33" fill="none" xmlns="http://www.w3.org/2000/svg">
<path d="M22.0193 32.3833C18.7334 32.3833 15.4474 32.3673 12.1617 32.3884C9.51996 32.4053 6.87946 32.4817 4.23806 32.5C3.49492 32.5 2.75282 32.4442 2.01798 32.334C0.435064 32.1069 -0.194738 31.1715 0.332403 29.6625C0.69287 28.6517 1.16393 27.6837 1.73703 26.7759C4.16515 22.8877 7.69807 20.3628 11.9322 18.7363C14.2308 17.8349 16.6738 17.3553 19.1435 17.3206C22.8359 17.2885 26.2349 18.2235 29.1378 20.6534C31.1194 22.2896 32.7388 24.3183 33.8937 26.6108C34.215 27.2514 34.5774 27.8772 34.8348 28.5431C35.0821 29.1578 35.2548 29.7998 35.3497 30.4552C35.4766 31.4373 34.9281 32.0884 33.9453 32.212C33.2598 32.3048 32.5691 32.3565 31.8769 32.3666C28.5911 32.3817 25.3052 32.3738 22.0193 32.3738V32.3833ZM32.8143 29.9864C32.8273 29.882 32.8261 29.7764 32.8113 29.6722C31.7646 26.9606 30.3185 24.51 28.0841 22.5903C26.3604 21.1093 24.427 20.0436 22.1301 19.7545C19.4835 19.4217 16.861 19.4914 14.2741 20.2186C9.38008 21.5941 5.47531 24.3021 2.80133 28.6674C2.49708 29.164 2.25558 29.6986 1.9758 30.2316C2.06083 30.2781 2.14955 30.3174 2.24104 30.3494C3.15662 30.5501 4.06967 30.432 4.99305 30.3807C6.91203 30.2732 8.8363 30.2272 10.7586 30.2172C17.0476 30.185 23.3365 30.1873 29.6256 30.1575C30.6725 30.1519 31.7176 30.0477 32.8148 29.9864H32.8143Z" fill="#BDBDBD"/>
<path d="M18.4331 0.502244C20.9648 0.440725 23.08 1.64623 24.6858 3.83712C25.0644 4.35366 25.5212 4.83324 25.7976 5.39977C26.4155 6.66608 26.9272 7.96695 26.5989 9.44491C26.2905 10.8327 25.8886 12.1692 24.9928 13.3067C23.3997 15.3274 21.3689 16.5767 18.7733 16.8873C16.4368 17.1671 14.2153 16.8218 12.1411 15.725C10.0048 14.5956 8.78933 12.7678 8.34805 10.4195C7.68386 6.88433 9.53772 3.71378 12.4628 2.02807C14.2329 1.00769 16.1443 0.493413 18.4331 0.502244ZM23.9804 7.68454C24.0964 6.79332 23.7389 6.0816 23.1849 5.43302C22.9688 5.17992 22.7733 4.90837 22.5483 4.66365C21.7339 3.77782 20.8053 3.07703 19.57 2.89158C17.8382 2.60566 16.0603 2.83817 14.461 3.55975C12.462 4.47686 10.9708 5.87501 10.6273 8.19986C10.2265 10.9119 11.6294 13.339 14.1245 14.1403C15.6196 14.6065 17.1983 14.7435 18.7516 14.5417C20.8751 14.2992 23.3745 12.1217 23.7123 9.88663C23.8225 9.15558 23.8922 8.41828 23.9804 7.6838V7.68454Z" fill="#BDBDBD"/>
</svg>
