<svg xmlns="http://www.w3.org/2000/svg" fill="none" viewBox="0 0 12 13">
  <path fill="#1B2728" d="M5.729 7.276c-1.044.934-2.064 1.84-3.075 2.756-.585.53-1.15 1.085-1.734 1.617a1.899 1.899 0 0 1-.528.35c-.096.04-.303 0-.35-.074-.063-.098-.045-.272-.01-.4.024-.093.124-.17.2-.245a5615.45 5615.45 0 0 1 4.325-4.254c.162-.159.328-.313.514-.49-.63-.698-1.261-1.372-1.864-2.071C2.245 3.349 1.303 2.215.352 1.09.318 1.05.288 1.004.253.963.087.767-.031.555.159.316.3.138.639.164.876.407a76.61 76.61 0 0 1 1.728 1.849c1.037 1.14 2.066 2.286 3.1 3.428.044.042.09.08.14.116.8-.764 1.59-1.525 2.386-2.28.924-.875 1.852-1.746 2.782-2.614.35-.326.63-.385.843-.195.222.197.202.527-.152.88-.957.955-1.938 1.887-2.917 2.82-.746.71-1.504 1.41-2.298 2.152.645.668 1.262 1.333 1.91 1.967.62.61 1.277 1.183 1.91 1.78.248.225.48.466.695.723.173.215.198.482-.014.695-.21.21-.453.135-.655-.023a13.184 13.184 0 0 1-1.11-.924C8.141 9.72 7.08 8.644 6.01 7.573c-.084-.085-.165-.174-.282-.297Z"/>
</svg>
