<svg width="53" height="64" viewBox="0 0 53 64" fill="none" xmlns="http://www.w3.org/2000/svg">
<path d="M52.6679 36.8632C52.7107 41.9274 52.7784 46.9913 52.7854 52.0552C52.7888 54.2535 52.6187 56.4518 52.6131 58.6504C52.6057 61.7445 50.2866 63.6755 47.4376 63.7387C40.673 63.8877 33.9063 64.0182 27.1409 63.9979C21.4124 63.9809 15.6835 63.7705 9.9569 63.5838C8.38202 63.5036 6.81298 63.3332 5.25747 63.074C3.42518 62.8026 1.59704 60.6317 1.47547 58.6412C1.38181 57.1102 1.30392 55.5767 1.28306 54.0435C1.17321 45.948 1.07469 37.8521 0.9875 29.7566C0.899657 22.1588 0.814565 14.5612 0.732227 6.96371C0.727216 5.46262 1.10706 3.98545 1.83554 2.67297C2.16038 2.01662 2.6626 1.46441 3.28524 1.0789C3.90789 0.693379 4.62608 0.489914 5.3584 0.491692C7.55661 0.412346 9.75918 0.405221 11.9533 0.262784C19.9239 -0.255039 27.8936 0.14142 35.8641 0.203542C37.5065 0.2164 38.7387 0.768083 39.9432 1.90686C42.4754 4.30063 45.1798 6.51163 47.7988 8.81465C48.7959 9.6916 49.7157 10.6588 50.7361 11.5049C51.7624 12.3557 52.0878 13.4462 52.1096 14.6997C52.1858 19.0163 52.2649 23.333 52.3462 27.6494C52.4061 30.7214 52.4778 33.7932 52.544 36.865L52.6679 36.8632ZM35.1036 3.30234C34.364 3.24507 33.7501 3.1649 33.1352 3.15471C27.906 3.06735 22.6766 2.98791 17.4471 2.91608C15.0832 2.88357 12.7188 2.86736 10.3546 2.85377C9.15345 2.84625 7.94946 2.80844 6.75146 2.87202C5.08396 2.96059 4.57073 3.44479 4.27031 5.09191C3.97171 6.64254 3.90168 8.22837 4.06236 9.79926C4.16102 10.7068 4.21056 11.6191 4.21064 12.532C4.23589 27.1833 4.25478 41.8346 4.26739 56.4862C4.25959 56.7768 4.27105 57.0673 4.30166 57.3565C4.55887 59.249 5.55423 60.4971 7.70124 60.5822C15.6695 60.8975 23.6373 60.8986 31.6077 60.7674C35.675 60.7001 39.7429 60.6635 43.8104 60.6162C44.8053 60.6047 45.8024 60.6424 46.795 60.5947C48.5253 60.5116 49.39 59.6409 49.3723 57.9388C49.3531 56.115 49.217 54.2931 49.1863 52.4693C49.1505 50.3531 49.2222 48.2346 49.1619 46.1195C49.0118 40.8102 48.7552 35.5034 48.6525 30.1934C48.5708 25.9201 48.6539 21.6435 48.6598 17.3684C48.6598 17.0503 48.6251 16.732 48.6062 16.4085C48.4628 16.3779 48.3175 16.3574 48.1711 16.3471C45.6401 16.3981 43.1091 16.4778 40.578 16.4926C39.7902 16.4984 39.0045 16.4073 38.2393 16.2208C36.6813 15.8345 36.1931 15.2302 36.0284 13.6244C35.8803 12.1803 35.7835 10.7313 35.6542 9.28551C35.4824 7.34865 35.2987 5.41053 35.1036 3.30234ZM39.578 13.4957L47.022 13.0291L38.3143 5.1199C38.7591 8.06836 39.1583 10.7139 39.578 13.4957Z" fill="#BDBDBD"/>
<path d="M16.942 13.6858C18.725 13.6858 20.509 13.6765 22.2913 13.6889C23.5502 13.6976 24.0053 14.053 24.2793 15.292C24.3972 15.8598 24.4614 16.4373 24.4712 17.0171C24.5093 18.3665 23.9617 19.0537 22.6482 19.2187C21.4973 19.3643 20.3352 19.4562 19.1758 19.4855C17.3916 19.5314 15.6055 19.4875 13.8207 19.5138C12.9918 19.5085 12.1635 19.5642 11.3427 19.6801C9.41458 19.9956 8.44982 18.4009 8.49349 17.0593C8.53001 16.3962 8.60536 15.736 8.71916 15.0818C8.75043 14.7465 8.89248 14.4313 9.12292 14.1858C9.35335 13.9403 9.65903 13.7785 9.99166 13.7261C10.64 13.5872 11.2991 13.5047 11.9617 13.4799C13.621 13.4457 15.2815 13.4688 16.9417 13.4688L16.942 13.6858ZM20.9089 16.3533C20.9186 16.2563 20.9281 16.1592 20.9375 16.0621C17.6044 16.181 14.2711 15.5599 10.8749 16.0197V17.0057C11.2597 16.9836 11.5825 16.9793 11.9021 16.9439C12.6817 16.8573 13.4577 16.7104 14.2393 16.6706C16.0194 16.5804 17.8019 16.5452 19.583 16.4766C20.0258 16.4576 20.467 16.3951 20.9089 16.3533Z" fill="#BDBDBD"/>
<path d="M32.1845 50.8222C29.1999 50.8222 26.2152 50.83 23.2321 50.816C22.5296 50.8256 21.8276 50.7797 21.1323 50.6788C20.3833 50.556 19.9919 50.1109 19.9939 49.5745C19.9963 49.0569 20.427 48.5556 21.1343 48.4376C22.0718 48.265 23.0207 48.1618 23.9733 48.1293C29.7323 48.0247 35.4914 47.9437 41.2502 47.8868C41.8705 47.8831 42.489 47.9555 43.0917 48.1019C43.8499 48.2838 44.1882 48.7633 44.1664 49.4159C44.142 50.0969 43.681 50.5594 42.8765 50.684C42.6299 50.7165 42.3815 50.7298 42.1327 50.7239C38.8164 50.7261 35.5004 50.7269 32.184 50.7254L32.1845 50.8222Z" fill="#BDBDBD"/>
<path d="M31.4729 40.4889C28.1558 40.4889 24.8388 40.4941 21.5217 40.4833C21.0249 40.4859 20.5289 40.4423 20.0403 40.3525C19.62 40.2711 19.2614 40.0312 19.2175 39.5413C19.169 38.9967 19.5123 38.6917 19.9595 38.5176C20.2339 38.4248 20.5207 38.3734 20.8102 38.3649C23.0004 38.2085 25.1894 37.9874 27.3825 37.9283C32.1072 37.7996 36.8338 37.7516 41.5596 37.6839C41.9729 37.678 42.3852 37.7272 42.7856 37.8296C43.6185 38.0448 43.9797 38.5069 43.945 39.2101C43.9128 39.8593 43.5468 40.2881 42.7763 40.4516C42.2898 40.548 41.7947 40.595 41.299 40.5909C38.023 40.6024 34.7473 40.5968 31.4714 40.5968L31.4729 40.4889Z" fill="#BDBDBD"/>
<path d="M31.827 30.5371C28.2581 30.5371 24.6891 30.5371 21.1199 30.5371C20.871 30.5371 20.6195 30.5781 20.3738 30.5543C19.9445 30.5128 19.5395 30.401 19.4679 29.8763C19.4269 29.6681 19.4652 29.4519 19.5753 29.2704C19.6855 29.0889 19.8595 28.9552 20.0632 28.8953C20.7242 28.6597 21.4099 28.5003 22.1071 28.4194C27.4425 27.9768 32.7969 27.8017 38.1502 27.8953C39.5613 27.9179 40.9729 27.9103 42.3841 27.9198C42.6746 27.9125 42.9652 27.9208 43.2547 27.9451C44.2319 28.0574 44.8707 28.6487 44.8374 29.3871C44.8053 30.0923 44.2023 30.6174 43.275 30.7103C42.9024 30.7406 42.5282 30.7457 42.1552 30.7256C39.8327 30.6446 37.5106 30.5431 35.188 30.4757C34.0686 30.4429 32.9476 30.4699 31.827 30.4699V30.5371Z" fill="#BDBDBD"/>
<path d="M12.082 54.4517C11.6849 54.4384 11.2887 54.4054 10.8949 54.3526C8.22574 53.8782 7.07946 51.5003 8.35873 49.1112C9.6591 46.6819 11.6035 46.0053 14.1523 47.0985C15.8383 47.8209 16.6965 49.3249 16.4199 51.0714C16.1045 53.0675 14.9154 54.2291 12.9985 54.4088C12.7114 54.435 12.4217 54.4361 12.082 54.4517ZM10.6246 51.1953C11.4982 51.765 12.4202 51.7114 13.336 51.4212C13.8213 49.6643 13.0432 48.9548 11.0461 49.231C10.5996 49.7815 10.3262 50.3864 10.6261 51.1964L10.6246 51.1953Z" fill="#BDBDBD"/>
<path d="M16.0468 29.4116C16.0468 29.4531 16.0483 29.4945 16.0468 29.5361C15.9871 31.0123 15.6714 32.3996 14.1558 33.0361C12.4653 33.7459 10.7936 33.6032 9.36367 32.3824C8.1169 31.3179 7.75292 29.9495 8.18822 28.3354C8.75798 26.2243 9.55754 25.5447 11.8399 25.4049C13.8319 25.2836 15.2422 26.0712 15.8125 27.7018C15.9618 28.2582 16.0663 28.8256 16.1249 29.3985L16.0468 29.4116ZM10.5551 28.0639C10.0259 29.0532 10.0249 29.6266 10.5308 30.2497C11.1346 30.9927 12.0021 31.1568 13.2224 30.7593C13.7705 29.7032 13.8448 28.8471 13.3073 28.3592C12.4743 27.6014 11.5061 27.6989 10.5551 28.0639Z" fill="#BDBDBD"/>
<path d="M11.9907 43.4403C11.3991 43.3467 10.9878 43.3035 10.5864 43.2148C8.79779 42.8188 7.68571 41.5537 7.72305 39.9787C7.76916 38.0791 8.85554 36.7833 10.675 36.375C12.341 36.0011 13.7887 36.3544 15.0064 37.5571C16.7586 39.2877 16.2585 42.0062 13.9799 42.9519C13.3085 43.2306 12.5524 43.3075 11.9907 43.4403ZM10.5017 38.5287C10.2191 39.1768 9.89509 39.8571 10.5352 40.3536C10.9133 40.6471 11.5323 40.7037 12.0487 40.7244C12.5779 40.7455 13.1452 40.6456 13.3383 39.9894C12.9193 38.6899 12.582 38.5054 10.5017 38.5298V38.5287Z" fill="#BDBDBD"/>
</svg>
