<svg width="23" height="20" viewBox="0 0 23 20" fill="none" xmlns="http://www.w3.org/2000/svg">
<path d="M18.4302 1.37468C15.0141 0.123444 12.1484 -0.259936 9.4124 0.16866C6.89059 0.563394 4.83263 1.72509 3.29621 3.62089C1.53727 5.77913 0.556603 8.467 0.51247 11.251C0.41902 14.6011 1.89703 17.1217 4.90583 18.7423C6.69956 19.7086 8.61321 19.9439 10.9359 20H10.9535L10.971 19.9987C11.1532 19.9833 11.3543 19.9705 11.5686 19.957C12.1006 19.9235 12.7036 19.8858 13.3079 19.7897C16.288 19.3159 18.6189 18.2048 20.4336 16.3906C24.1139 12.7111 23.3142 6.59958 21.355 3.78158C20.5143 2.57536 19.5582 1.78796 18.4302 1.37468ZM6.49369 16.8252C4.04805 15.7858 2.78454 13.7554 2.93639 11.108C3.02643 9.35107 3.5305 7.64069 4.40747 6.11583C4.92611 5.18585 5.62885 4.37145 6.47286 3.72222C7.31683 3.07299 8.28433 2.60262 9.31616 2.33993C9.7501 2.22131 10.1974 2.15949 10.6471 2.15601C10.8788 2.15477 11.1099 2.17567 11.3375 2.21846C13.1726 2.57575 14.9752 3.0663 16.3406 3.45375C18.3688 4.02918 19.676 5.45941 20.2253 7.70441C21.2467 11.8801 19.57 15.2323 15.7403 16.672C14.785 17.0015 13.8047 17.2542 12.8089 17.4275C12.3491 17.5083 11.8843 17.5576 11.4176 17.5755C11.2023 17.5888 10.988 17.602 10.7741 17.6209C9.30687 17.6649 7.84717 17.3935 6.49369 16.8252Z" fill="#1B2728"/>
<path d="M12.1781 14.9102C12.7811 14.8546 13.1688 14.392 13.1655 13.7315C13.1634 13.15 13.1349 12.5632 13.1074 11.9952C13.0925 11.6914 13.0779 11.3877 13.0669 11.0838C13.0598 10.8812 13.0615 10.6732 13.0634 10.4531V10.4152C13.1666 10.4069 13.2672 10.3994 13.365 10.3919C13.7694 10.3609 14.1512 10.3318 14.5279 10.2907C14.6593 10.2762 14.7919 10.2646 14.9248 10.2528C15.4023 10.2297 15.8748 10.1487 16.3326 10.012C16.7539 9.86791 17.0543 9.29763 17.109 8.94122C17.1297 8.82319 17.1249 8.70218 17.0948 8.58628C17.0646 8.47023 17.0102 8.36211 16.9346 8.26909C16.8307 8.15149 16.7039 8.05653 16.5616 7.99041C16.4194 7.92429 16.265 7.88833 16.108 7.88465C15.6876 7.8672 15.2666 7.88357 14.8486 7.93355C14.3141 7.99041 13.7815 8.05974 13.2177 8.13318C13.0798 8.15126 12.9396 8.16957 12.797 8.18788C12.7938 8.15021 12.7904 8.11293 12.7871 8.07631C12.7613 7.78385 12.7372 7.50777 12.6969 7.23513C12.575 6.40921 12.4368 5.57318 12.303 4.76471L12.2978 4.73328C12.152 3.85161 11.6658 3.70366 11.2846 3.73466C10.4877 3.79927 10.4712 4.52587 10.4634 4.87605L10.4608 4.97537C10.4582 5.12857 10.4654 5.28177 10.4824 5.43406C10.4892 5.51005 10.4964 5.58634 10.5002 5.66256C10.5388 6.43785 10.5765 7.21144 10.6148 8.00203L10.6363 8.45428L10.5689 8.46741C10.373 8.50619 10.2183 8.53654 10.0641 8.55764C9.65495 8.61342 9.24316 8.66533 8.83247 8.71895C8.08885 8.81436 7.32008 8.9128 6.5648 9.02971C5.51106 9.19276 5.25431 9.50503 5.25732 10.6217V10.8965L5.52869 10.9395C6.58656 11.1084 7.5981 10.9874 8.66923 10.8594C9.35688 10.7644 10.0491 10.7087 10.7429 10.6925C10.7429 10.7306 10.7414 10.7683 10.7406 10.8056C10.7292 11.1019 10.7343 11.3987 10.7556 11.6946C10.8078 12.4318 10.8976 13.166 11.0246 13.8941C11.1489 14.5402 11.5346 14.9151 12.067 14.9151C12.1047 14.9151 12.1411 14.9136 12.1781 14.9102Z" fill="#1B2728"/>
</svg>
