<svg width="27" height="33" viewBox="0 0 27 33" fill="none" xmlns="http://www.w3.org/2000/svg">
<path d="M26.6706 17.4781C26.7039 20.5299 26.7483 23.5813 26.7643 26.6331C26.7699 27.7119 26.6858 28.7906 26.6793 29.8695C26.6695 31.4138 25.4702 32.3547 24.0611 32.3845C21.1972 32.4451 18.3321 32.5124 15.4679 32.498C12.1044 32.481 8.74093 32.393 5.37823 32.3057C4.59058 32.2662 3.80577 32.1822 3.02756 32.0544C2.07818 31.9217 1.14057 30.8343 1.1061 29.8003C1.01884 27.1867 0.920294 24.573 0.891533 21.9583C0.828183 16.206 0.815694 10.4536 0.754531 4.70201C0.745186 3.81864 0.765435 2.96233 1.13072 2.14449C1.40353 1.53297 1.79225 1.03537 2.47052 0.851388C2.71054 0.788521 2.95685 0.752715 3.20486 0.744607C4.26261 0.702374 5.32231 0.698909 6.37873 0.636166C10.0327 0.418937 13.6862 0.498437 17.3401 0.620524C17.8377 0.63715 18.3365 0.664388 18.8335 0.64861C19.0306 0.643006 19.2267 0.677009 19.4103 0.748636C19.5941 0.820263 19.7614 0.928005 19.9027 1.06554C21.7801 2.73445 23.6464 4.4165 25.5459 6.06018C26.2022 6.62836 26.4276 7.28872 26.4363 8.13688C26.4687 11.251 26.5545 14.3648 26.6199 17.4787L26.6706 17.4781ZM17.9244 2.1574C17.5592 2.12864 17.2525 2.08796 16.9452 2.08274C14.3301 2.03881 11.7148 1.9988 9.09933 1.96281C7.91707 1.94655 6.73455 1.9394 5.55216 1.93212C4.95144 1.92848 4.34925 1.90958 3.7501 1.94065C2.91358 1.98409 2.65485 2.22518 2.50449 3.04496C2.35441 3.82036 2.31889 4.61362 2.39905 5.39934C2.44845 5.8532 2.4733 6.30937 2.47354 6.76591C2.48616 14.0935 2.49567 21.4213 2.50207 28.7488C2.49824 28.8941 2.50379 29.0394 2.51869 29.184C2.6432 30.1276 3.14151 30.7601 4.2137 30.8027C8.21947 30.9604 12.2252 30.9621 16.2322 30.8942C18.2456 30.86 20.2593 30.843 22.2729 30.82C22.7498 30.8145 23.2276 30.8332 23.7035 30.8117C24.658 30.7685 25.0707 30.3593 25.0627 29.4244C25.0481 27.786 25.007 26.1478 24.9739 24.5094C24.9569 23.6586 24.9394 22.8075 24.9103 21.9574C24.8421 19.9454 24.7341 17.9343 24.7034 15.9219C24.669 13.6806 24.7034 11.4382 24.7051 9.19627C24.7051 9.03668 24.689 8.87715 24.6801 8.71357C24.6099 8.69674 24.5385 8.68539 24.4666 8.67966C23.2007 8.70503 21.9349 8.74493 20.6689 8.75243C20.2751 8.75545 19.8821 8.71028 19.4992 8.61781C18.7175 8.4257 18.4713 8.12399 18.3886 7.32365C18.3141 6.60155 18.2658 5.87672 18.201 5.15355C18.1138 4.18474 18.0221 3.21553 17.9244 2.1574ZM23.7314 7.03481C23.7401 6.99106 23.7486 6.94724 23.7571 6.90338L19.6471 3.17424L19.5525 3.23611C19.7542 4.56098 19.9559 5.88585 20.1637 7.25015L23.7314 7.03481Z" fill="#BDBDBD"/>
<path d="M16.1129 7.56004C16.0502 7.42535 15.9876 7.29059 15.9276 7.15539C15.8048 6.87875 15.5754 6.68315 15.2057 6.53978C15.1534 6.51468 15.0963 6.50114 15.0382 6.50007C14.9802 6.49899 14.9227 6.51039 14.8695 6.53353C14.8234 6.55965 14.7835 6.59548 14.7526 6.63852C14.7216 6.68155 14.7004 6.73077 14.6904 6.7828C14.6474 6.95597 14.6258 7.13374 14.6258 7.31217C14.6193 7.74252 14.6162 8.17296 14.6131 8.60331C14.6078 9.32521 14.6026 10.0718 14.5802 10.805C14.5484 11.8489 14.5072 12.9096 14.4674 13.9357C14.426 15.0006 14.3831 16.102 14.3508 17.1854C14.2963 19.0098 14.2559 20.865 14.2169 22.6593L14.1846 24.1298C14.1748 24.5773 14.1751 25.0432 14.1858 25.5145C14.1777 25.6876 14.2133 25.86 14.2893 26.0157C14.3369 26.0947 14.509 26.3562 14.7289 26.403C14.7569 26.4089 14.7854 26.412 14.814 26.412C15.0433 26.412 15.2012 26.2047 15.2554 25.9905C15.3002 25.803 15.3226 25.6109 15.322 25.4181C15.3277 24.625 15.3315 23.8321 15.3333 23.039C15.335 22.5517 15.3368 22.0644 15.3389 21.5771C15.3394 21.4765 15.346 21.3769 15.3536 21.2615C15.3557 21.2295 15.3578 21.1966 15.36 21.1625C15.5829 21.1625 15.8035 21.1636 16.0218 21.1658C16.5952 21.1695 17.1367 21.1732 17.6886 21.1566C18.3263 21.1374 18.5599 20.8985 18.581 20.2433C18.5823 20.1384 18.577 20.0335 18.5652 19.9292L18.5578 19.8462C18.5453 19.6968 18.5317 19.5475 18.5181 19.3982C18.4929 19.1231 18.467 18.8385 18.4501 18.5589L18.4319 18.2544C18.3477 16.8386 18.2599 15.3745 17.9352 13.9642C17.5793 12.4198 17.1615 10.7879 16.6208 8.82883C16.4867 8.39266 16.3168 7.96827 16.1129 7.56004ZM17.5272 20.0438H15.4035C15.3836 18.6874 15.4245 17.2726 15.464 15.9036C15.4815 15.3004 15.4995 14.6767 15.5124 14.0619C15.5417 12.65 15.5701 11.2381 15.5976 9.82615L15.6237 8.51182C16.6227 11.8999 17.5828 15.8698 17.527 20.0438H17.5272Z" fill="#BDBDBD"/>
<path d="M9.81264 9.84037C9.76415 9.41102 9.74251 8.97067 9.72155 8.54444C9.71195 8.34703 9.70227 8.14959 9.68998 7.95234C9.68487 7.86917 9.67998 7.786 9.67526 7.70282C9.65969 7.43056 9.6435 7.14918 9.61303 6.8728C9.60151 6.8096 9.57336 6.75058 9.53147 6.70188C9.48958 6.65318 9.43546 6.61657 9.37469 6.59574C9.26896 6.57487 9.16811 6.68653 9.08645 6.77678C9.03882 6.83897 9.01266 6.91491 9.01205 6.99324C9.00363 7.2719 8.99427 7.55053 8.98467 7.82919C8.95832 8.58686 8.93101 9.36978 8.93715 10.1407C8.94165 10.4149 9.00661 10.6847 9.1274 10.9309C9.24818 11.1771 9.42179 11.3936 9.63588 11.565C9.85181 11.7331 10.0839 11.8794 10.3286 12.0019C10.4296 12.057 10.5339 12.1137 10.6393 12.175C10.6291 12.4677 10.6167 12.7627 10.6043 13.059C10.5755 13.7447 10.5454 14.4536 10.5432 15.1566C10.5341 17.6754 10.5356 20.2364 10.5371 22.7131C10.5377 23.6483 10.5381 24.5833 10.5383 25.5185C10.5383 25.5502 10.5383 25.582 10.5377 25.6137C10.5368 25.7117 10.5358 25.8129 10.5438 25.9138C10.5719 26.2666 10.7707 26.5 11.0405 26.5C11.0458 26.5 11.051 26.5 11.0563 26.5C11.3374 26.4906 11.5217 26.248 11.526 25.8818C11.5282 25.6804 11.5224 25.4766 11.5168 25.2795C11.512 25.1087 11.5069 24.9322 11.5072 24.759C11.5119 22.5404 11.5178 20.3219 11.5249 18.1034L11.5299 16.3411C11.5307 16.0542 11.5314 15.7673 11.5318 15.4803C11.5331 14.7154 11.5345 13.9247 11.5421 13.147C11.5447 12.895 11.5615 12.6376 11.5778 12.3887C11.5841 12.2916 11.5904 12.1944 11.5959 12.0972C12.4565 11.7871 12.9697 11.1635 13.2564 10.0841C13.5318 9.04728 13.5427 8.01852 13.5175 7.14887L13.5167 7.11747C13.5151 7.02562 13.513 6.91108 13.4457 6.84222C13.3256 6.71922 13.1848 6.58731 13.0302 6.57889C12.8836 6.57047 12.7165 6.74724 12.6526 6.8779C12.6108 6.9812 12.5918 7.0923 12.5967 7.20363C12.5955 7.24648 12.5945 7.28931 12.5901 7.33057C12.568 7.54533 12.5487 7.76059 12.5295 7.97594C12.4843 8.48105 12.4376 9.00301 12.3524 9.50863C12.2971 9.83577 12.1571 10.16 12.0216 10.4735C11.9949 10.5354 11.9683 10.5972 11.9423 10.6587C11.9163 10.7257 11.8768 10.7867 11.8263 10.8379C11.7757 10.889 11.7152 10.9291 11.6485 10.9558C11.6481 10.9078 11.6478 10.8607 11.6474 10.8145C11.6459 10.6437 11.6444 10.4823 11.6499 10.3225C11.6551 10.1705 11.6611 10.0185 11.6672 9.86642C11.7021 8.99518 11.7382 8.09424 11.6028 7.20683C11.5905 7.06724 11.5491 6.93178 11.4816 6.809C11.4412 6.76126 11.3901 6.72391 11.3323 6.70015C11.2745 6.6764 11.2118 6.66693 11.1495 6.67253C11.0228 6.68524 10.9383 6.86211 10.9227 6.89747C10.9014 6.95601 10.8944 7.01877 10.9024 7.08055C10.9035 7.10152 10.9048 7.12267 10.9041 7.14279C10.8938 7.42273 10.8837 7.70271 10.8739 7.98276C10.8471 8.73849 10.8195 9.51998 10.7858 10.2881C10.7774 10.4733 10.7532 10.6585 10.7273 10.8538C10.7195 10.9115 10.7119 10.9697 10.7045 11.0288C10.1711 10.8168 9.87881 10.427 9.81264 9.84037Z" fill="#BDBDBD"/>
</svg>
